# xmcd CD database file
#
# Track frame offsets:
#	150
#	17140
#	35389
#	54611
#	83023
#	100570
#	118921
#	146134
#	165944
#
# Disc length: 2330 seconds
#
# Revision: 0
# Processed by: cddbd v1.5.2PL0 Copyright (c) Steve Scherf et al.
# Submitted via: CDex 1.51
#
DISCID=6b091809
DTITLE=Beggars Banquet - New Ways
DYEAR=1900
DGENRE=Rhythmic Soul
TTITLE0=I Feel Good
TTITLE1=Caledonia
TTITLE2=Someday Baby
TTITLE3=Hi Di Ho
TTITLE4=Love The One You´re With
TTITLE5=Born Under A Bad Sign
TTITLE6=Help The Poor
TTITLE7=You Don´t Love Me No More
TTITLE8=You Got Me Running
EXTD=
EXTT0=
EXTT1=
EXTT2=
EXTT3=
EXTT4=
EXTT5=
EXTT6=
EXTT7=
EXTT8=
PLAYORDER=
